# xmcd
#
# Track frame offsets:
#	150
#	6969
#	23228
#	39616
#	52498
#	79437
#	101499
#	122841
#	153278
#	187775
#
# Disc length: 2791 seconds
#
# Revision: 0
# Processed by: cddbd v1.5.1PL2 Copyright (c) Steve Scherf et al.
# Submitted via: EasyCDDAExtractor 8.0.2.1
#
DISCID=7f0ae50a
DTITLE=Uriah Heep - Carling Academy Bristol 23-11-05 Disc 1
DYEAR=2005
DGENRE=Hard Rock
TTITLE0=Intro
TTITLE1=So Tired
TTITLE2=Cry Freedom
TTITLE3=Falling In Love
TTITLE4=Words In The Distance
TTITLE5=If I Had The Time
TTITLE6=A Year Or A Day
TTITLE7=Between Two Worlds
TTITLE8=Love In Silence
TTITLE9=Free Me
EXTD=
EXTT0=
EXTT1=
EXTT2=
EXTT3=
EXTT4=
EXTT5=
EXTT6=
EXTT7=
EXTT8=
EXTT9=
PLAYORDER=
